<?xml version="1.0" encoding="UTF-8" standalone="no"?>
<!DOCTYPE svg PUBLIC "-//W3C//DTD SVG 1.1//EN"
 "http://www.w3.org/Graphics/SVG/1.1/DTD/svg11.dtd">
<!-- Generated by graphviz version 2.40.1 (20161225.0304)
 -->
<!-- Title: G Pages: 1 -->
<svg width="499pt" height="206pt"
 viewBox="0.00 0.00 498.62 206.00" xmlns="http://www.w3.org/2000/svg" xmlns:xlink="http://www.w3.org/1999/xlink">
<g id="graph0" class="graph" transform="scale(1 1) rotate(0) translate(4 202)">
<title>G</title>
<polygon fill="#ffffff" stroke="transparent" points="-4,4 -4,-202 494.6222,-202 494.6222,4 -4,4"/>
<!-- node0 -->
<g id="node1" class="node">
<title>node0</title>
<ellipse fill="none" stroke="#000000" cx="65.4727" cy="-99" rx="65.4454" ry="18"/>
<text text-anchor="middle" x="65.4727" y="-94.8" font-family="Times,serif" font-size="14.00" fill="#000000">Research City</text>
</g>
<!-- node1 -->
<g id="node2" class="node">
<title>node1</title>
<ellipse fill="none" stroke="#000000" cx="240.1939" cy="-180" rx="73.4978" ry="18"/>
<text text-anchor="middle" x="240.1939" y="-175.8" font-family="Times,serif" font-size="14.00" fill="#000000">Get Tech Coord</text>
</g>
<!-- node0&#45;&gt;node1 -->
<g id="edge2" class="edge">
<title>node0&#45;&gt;node1</title>
<path fill="none" stroke="#000000" d="M93.8214,-115.4229C113.8897,-126.7157 141.6298,-141.6613 166.9454,-153 173.5784,-155.9709 180.6465,-158.8818 187.6765,-161.6276"/>
<polygon fill="#000000" stroke="#000000" points="186.6041,-164.9645 197.1948,-165.2596 189.0997,-158.4244 186.6041,-164.9645"/>
</g>
<!-- node3 -->
<g id="node4" class="node">
<title>node3</title>
<ellipse fill="none" stroke="#000000" cx="240.1939" cy="-126" rx="67.7972" ry="18"/>
<text text-anchor="middle" x="240.1939" y="-121.8" font-family="Times,serif" font-size="14.00" fill="#000000">Get 5 Students</text>
</g>
<!-- node0&#45;&gt;node3 -->
<g id="edge4" class="edge">
<title>node0&#45;&gt;node3</title>
<path fill="none" stroke="#000000" d="M122.683,-107.8408C138.2599,-110.248 155.2946,-112.8804 171.4401,-115.3754"/>
<polygon fill="#000000" stroke="#000000" points="170.9399,-118.8395 181.3571,-116.9078 172.009,-111.9216 170.9399,-118.8395"/>
</g>
<!-- node4 -->
<g id="node5" class="node">
<title>node4</title>
<ellipse fill="none" stroke="#000000" cx="240.1939" cy="-72" rx="58.4641" ry="18"/>
<text text-anchor="middle" x="240.1939" y="-67.8" font-family="Times,serif" font-size="14.00" fill="#000000">Get Teacher</text>
</g>
<!-- node0&#45;&gt;node4 -->
<g id="edge3" class="edge">
<title>node0&#45;&gt;node4</title>
<path fill="none" stroke="#000000" d="M122.683,-90.1592C140.3192,-87.4338 159.8241,-84.4197 177.7914,-81.6432"/>
<polygon fill="#000000" stroke="#000000" points="178.5309,-85.0705 187.879,-80.0843 177.4618,-78.1526 178.5309,-85.0705"/>
</g>
<!-- node5 -->
<g id="node6" class="node">
<title>node5</title>
<ellipse fill="none" stroke="#000000" cx="240.1939" cy="-18" rx="61.9369" ry="18"/>
<text text-anchor="middle" x="240.1939" y="-13.8" font-family="Times,serif" font-size="14.00" fill="#000000">Get Location</text>
</g>
<!-- node0&#45;&gt;node5 -->
<g id="edge1" class="edge">
<title>node0&#45;&gt;node5</title>
<path fill="none" stroke="#000000" d="M93.8214,-82.5771C113.8897,-71.2843 141.6298,-56.3387 166.9454,-45 174.4201,-41.6522 182.4474,-38.3804 190.3499,-35.3353"/>
<polygon fill="#000000" stroke="#000000" points="191.7583,-38.5449 199.8819,-31.7435 189.29,-31.9945 191.7583,-38.5449"/>
</g>
<!-- node2 -->
<g id="node3" class="node">
<title>node2</title>
<ellipse fill="none" stroke="#000000" cx="420.0323" cy="-99" rx="70.68" ry="18"/>
<text text-anchor="middle" x="420.0323" y="-94.8" font-family="Times,serif" font-size="14.00" fill="#000000">Run First Class</text>
</g>
<!-- node1&#45;&gt;node2 -->
<g id="edge5" class="edge">
<title>node1&#45;&gt;node2</title>
<path fill="none" stroke="#000000" d="M282.7449,-165.2621C292.8944,-161.4871 303.6272,-157.2781 313.4424,-153 336.2615,-143.0539 361.1075,-130.5675 381.0666,-120.1075"/>
<polygon fill="#000000" stroke="#000000" points="382.9459,-123.0732 390.1543,-115.3085 379.6771,-116.8833 382.9459,-123.0732"/>
</g>
<!-- node3&#45;&gt;node2 -->
<g id="edge6" class="edge">
<title>node3&#45;&gt;node2</title>
<path fill="none" stroke="#000000" d="M299.5781,-117.0844C315.4218,-114.7057 332.7008,-112.1115 349.0973,-109.6498"/>
<polygon fill="#000000" stroke="#000000" points="349.8022,-113.0833 359.1717,-108.1373 348.7629,-106.1609 349.8022,-113.0833"/>
</g>
<!-- node4&#45;&gt;node2 -->
<g id="edge7" class="edge">
<title>node4&#45;&gt;node2</title>
<path fill="none" stroke="#000000" d="M293.1787,-79.9549C310.6558,-82.5788 330.3861,-85.541 348.9879,-88.3338"/>
<polygon fill="#000000" stroke="#000000" points="348.4796,-91.7966 358.8884,-89.8202 349.5189,-84.8742 348.4796,-91.7966"/>
</g>
<!-- node5&#45;&gt;node2 -->
<g id="edge8" class="edge">
<title>node5&#45;&gt;node2</title>
<path fill="none" stroke="#000000" d="M280.0618,-31.7449C290.9851,-35.7676 302.7575,-40.3428 313.4424,-45 336.2615,-54.9461 361.1075,-67.4325 381.0666,-77.8925"/>
<polygon fill="#000000" stroke="#000000" points="379.6771,-81.1167 390.1543,-82.6915 382.9459,-74.9268 379.6771,-81.1167"/>
</g>
</g>
</svg>
