<?xml version="1.0" encoding="UTF-8" standalone="no"?>
<!DOCTYPE svg PUBLIC "-//W3C//DTD SVG 1.1//EN"
 "http://www.w3.org/Graphics/SVG/1.1/DTD/svg11.dtd">
<!-- Generated by graphviz version 2.40.1 (20161225.0304)
 -->
<!-- Title: G Pages: 1 -->
<svg width="1014pt" height="206pt"
 viewBox="0.00 0.00 1014.48 206.00" xmlns="http://www.w3.org/2000/svg" xmlns:xlink="http://www.w3.org/1999/xlink">
<g id="graph0" class="graph" transform="scale(1 1) rotate(0) translate(4 202)">
<title>G</title>
<polygon fill="#ffffff" stroke="transparent" points="-4,4 -4,-202 1010.475,-202 1010.475,4 -4,4"/>
<!-- node0 -->
<g id="node1" class="node">
<title>node0</title>
<ellipse fill="none" stroke="#000000" cx="390.8685" cy="-180" rx="179.2682" ry="18"/>
<text text-anchor="middle" x="390.8685" y="-176.3" font-family="Times,serif" font-size="14.00" fill="#000000">(task &quot;Get Tech Coord&quot; 10 (list (task &quot;Research City&quot; 10 &#39;())))</text>
</g>
<!-- node5 -->
<g id="node6" class="node">
<title>node5</title>
<ellipse fill="none" stroke="#000000" cx="806.3638" cy="-99" rx="200.2225" ry="90.5193"/>
<text text-anchor="middle" x="806.3638" y="-147.8" font-family="Times,serif" font-size="14.00" fill="#000000">(task</text>
<text text-anchor="middle" x="806.3638" y="-132.8" font-family="Times,serif" font-size="14.00" fill="#000000"> &quot;Run First Class&quot;</text>
<text text-anchor="middle" x="806.3638" y="-117.8" font-family="Times,serif" font-size="14.00" fill="#000000"> 60</text>
<text text-anchor="middle" x="806.3638" y="-102.8" font-family="Times,serif" font-size="14.00" fill="#000000"> (list</text>
<text text-anchor="middle" x="806.3638" y="-87.8" font-family="Times,serif" font-size="14.00" fill="#000000"> &#160;(task &quot;Get Tech Coord&quot; 10 (list (task &quot;Research City&quot; 10 &#39;())))</text>
<text text-anchor="middle" x="806.3638" y="-72.8" font-family="Times,serif" font-size="14.00" fill="#000000"> &#160;(task &quot;Get Teacher&quot; 10 (list (task &quot;Research City&quot; 10 &#39;())))</text>
<text text-anchor="middle" x="806.3638" y="-57.8" font-family="Times,serif" font-size="14.00" fill="#000000"> &#160;(task &quot;Get Location&quot; 10 (list (task &quot;Research City&quot; 10 &#39;())))</text>
<text text-anchor="middle" x="806.3638" y="-42.8" font-family="Times,serif" font-size="14.00" fill="#000000"> &#160;(task &quot;Get 5 Students&quot; 10 (list (task &quot;Research City&quot; 10 &#39;())))))</text>
</g>
<!-- node0&#45;&gt;node5 -->
<g id="edge1" class="edge">
<title>node0&#45;&gt;node5</title>
<path fill="none" stroke="#000000" d="M496.8554,-165.4026C521.0373,-161.6962 546.5803,-157.4819 570.2526,-153 586.0769,-150.004 602.4513,-146.6957 618.8569,-143.2357"/>
<polygon fill="#000000" stroke="#000000" points="620.0181,-146.5671 629.0712,-141.0631 618.5618,-139.7202 620.0181,-146.5671"/>
</g>
<!-- node1 -->
<g id="node2" class="node">
<title>node1</title>
<ellipse fill="none" stroke="#000000" cx="390.8685" cy="-126" rx="168.97" ry="18"/>
<text text-anchor="middle" x="390.8685" y="-122.3" font-family="Times,serif" font-size="14.00" fill="#000000">(task &quot;Get Teacher&quot; 10 (list (task &quot;Research City&quot; 10 &#39;())))</text>
</g>
<!-- node1&#45;&gt;node5 -->
<g id="edge2" class="edge">
<title>node1&#45;&gt;node5</title>
<path fill="none" stroke="#000000" d="M535.3139,-116.6136C555.6411,-115.2926 576.8624,-113.9136 598.0909,-112.5341"/>
<polygon fill="#000000" stroke="#000000" points="598.422,-116.0201 608.1739,-111.8789 597.968,-109.0348 598.422,-116.0201"/>
</g>
<!-- node2 -->
<g id="node3" class="node">
<title>node2</title>
<ellipse fill="none" stroke="#000000" cx="390.8685" cy="-72" rx="171.6696" ry="18"/>
<text text-anchor="middle" x="390.8685" y="-68.3" font-family="Times,serif" font-size="14.00" fill="#000000">(task &quot;Get Location&quot; 10 (list (task &quot;Research City&quot; 10 &#39;())))</text>
</g>
<!-- node2&#45;&gt;node5 -->
<g id="edge3" class="edge">
<title>node2&#45;&gt;node5</title>
<path fill="none" stroke="#000000" d="M536.7724,-81.4812C556.5657,-82.7674 577.1831,-84.1072 597.8111,-85.4477"/>
<polygon fill="#000000" stroke="#000000" points="597.729,-88.9496 607.9349,-86.1056 598.1829,-81.9644 597.729,-88.9496"/>
</g>
<!-- node3 -->
<g id="node4" class="node">
<title>node3</title>
<ellipse fill="none" stroke="#000000" cx="87.7422" cy="-99" rx="87.9851" ry="18"/>
<text text-anchor="middle" x="87.7422" y="-95.3" font-family="Times,serif" font-size="14.00" fill="#000000">(task &quot;Research City&quot; 10 &#39;())</text>
</g>
<!-- node3&#45;&gt;node0 -->
<g id="edge5" class="edge">
<title>node3&#45;&gt;node0</title>
<path fill="none" stroke="#000000" d="M119.9605,-115.853C144.4389,-127.9606 179.2753,-143.7229 211.4844,-153 227.4224,-157.5906 244.3945,-161.4351 261.3008,-164.6462"/>
<polygon fill="#000000" stroke="#000000" points="260.7723,-168.1075 271.239,-166.4645 262.0322,-161.2218 260.7723,-168.1075"/>
</g>
<!-- node3&#45;&gt;node1 -->
<g id="edge6" class="edge">
<title>node3&#45;&gt;node1</title>
<path fill="none" stroke="#000000" d="M168.5763,-106.2C193.9919,-108.4639 222.8281,-111.0323 251.1126,-113.5517"/>
<polygon fill="#000000" stroke="#000000" points="250.8165,-117.0391 261.0876,-114.4402 251.4376,-110.0667 250.8165,-117.0391"/>
</g>
<!-- node3&#45;&gt;node2 -->
<g id="edge4" class="edge">
<title>node3&#45;&gt;node2</title>
<path fill="none" stroke="#000000" d="M168.5763,-91.8C193.5686,-89.5739 221.8684,-87.0531 249.6986,-84.5743"/>
<polygon fill="#000000" stroke="#000000" points="250.2736,-88.037 259.9236,-83.6635 249.6525,-81.0646 250.2736,-88.037"/>
</g>
<!-- node4 -->
<g id="node5" class="node">
<title>node4</title>
<ellipse fill="none" stroke="#000000" cx="390.8685" cy="-18" rx="176.2688" ry="18"/>
<text text-anchor="middle" x="390.8685" y="-14.3" font-family="Times,serif" font-size="14.00" fill="#000000">(task &quot;Get 5 Students&quot; 10 (list (task &quot;Research City&quot; 10 &#39;())))</text>
</g>
<!-- node3&#45;&gt;node4 -->
<g id="edge7" class="edge">
<title>node3&#45;&gt;node4</title>
<path fill="none" stroke="#000000" d="M119.9605,-82.147C144.4389,-70.0394 179.2753,-54.2771 211.4844,-45 227.6754,-40.3366 244.9336,-36.4431 262.1058,-33.2014"/>
<polygon fill="#000000" stroke="#000000" points="262.9849,-36.5991 272.1978,-31.3672 261.7331,-29.7119 262.9849,-36.5991"/>
</g>
<!-- node4&#45;&gt;node5 -->
<g id="edge8" class="edge">
<title>node4&#45;&gt;node5</title>
<path fill="none" stroke="#000000" d="M495.9078,-32.4523C520.3692,-36.1937 546.2709,-40.4595 570.2526,-45 586.0769,-47.996 602.4513,-51.3043 618.8569,-54.7643"/>
<polygon fill="#000000" stroke="#000000" points="618.5618,-58.2798 629.0712,-56.9369 620.0181,-51.4329 618.5618,-58.2798"/>
</g>
</g>
</svg>
